<?xml version="1.0" encoding="utf-8"?>
<!-- Generator: Adobe Illustrator 24.1.2, SVG Export Plug-In . SVG Version: 6.00 Build 0)  -->
<svg version="1.1" id="Logos" xmlns="http://www.w3.org/2000/svg" xmlns:xlink="http://www.w3.org/1999/xlink" x="0px" y="0px"
	 viewBox="0 0 254 91" style="enable-background:new 0 0 254 91;" xml:space="preserve">
<style type="text/css">
	.st0{fill:#FFFFFF;}
	.st1{fill:#B2996A;}
</style>
<g>
	<g>
		<g>
			<path d="M3.4,87.35c-2.13-2.07-3.21-4.7-3.21-7.94c0-3.27,1.08-5.95,3.27-8.06c2.19-2.13,4.82-3.18,7.91-3.18
				c1.96,0,3.77,0.44,5.43,1.31c1.66,0.88,2.98,2.01,3.88,3.44l-2.04,1.66c-1.72-2.34-4.29-3.79-7.24-3.79
				c-2.36,0-4.35,0.82-5.98,2.45c-1.64,1.63-2.45,3.71-2.45,6.19c0,2.45,0.79,4.47,2.39,6.04c1.61,1.58,3.62,2.36,6.01,2.36
				c3.04,0,5.49-1.25,7.38-3.74l1.98,1.66c-2.01,2.8-5.52,4.67-9.46,4.67C8.19,90.45,5.56,89.43,3.4,87.35z"/>
		</g>
		<g>
			<path d="M54.18,68.56L46.8,82.3v7.82h-2.68V82.3l-7.3-13.75h2.98l5.66,11.15l5.75-11.15H54.18z"/>
		</g>
		<g>
			<path d="M87.08,83.94c0,1.66-0.58,3.12-1.75,4.35c-1.17,1.23-2.8,1.84-4.9,1.84h-8.76V68.56h8.38c1.84,0,3.3,0.55,4.32,1.63
				c1.05,1.08,1.58,2.34,1.58,3.77c0,1.96-1.14,3.71-2.92,4.38C85.62,79.06,87.08,81.34,87.08,83.94z M74.35,71.12v6.19h5.28
				c2.22,0,3.53-1.49,3.53-3.24c0-1.61-1.31-2.95-3.44-2.95H74.35z M80.01,87.56c1.31,0,2.33-0.38,3.09-1.14
				c0.79-0.76,1.17-1.63,1.17-2.66c0-2.13-1.58-3.91-4.41-3.91h-5.52v7.71H80.01z"/>
		</g>
		<g>
			<path d="M103.83,90.13V68.56h13.22v2.57h-10.54v6.74h9.75v2.57h-9.75v7.12h10.57v2.57H103.83z"/>
		</g>
		<g>
			<path d="M135.94,90.13V68.56h2.68V87.5h11.68v2.63H135.94z"/>
		</g>
		<g>
			<path d="M167.7,90.13V68.56h2.68V87.5h11.68v2.63H167.7z"/>
		</g>
		<g>
			<path d="M198.86,68.56h2.69v13.84c0,3.53,1.81,5.46,5.05,5.46c3.15,0,4.99-2.04,4.99-5.46V68.56h2.71v14.39
				c0,2.34-0.7,4.17-2.1,5.55c-1.4,1.34-3.27,2.01-5.6,2.01s-4.2-0.67-5.63-2.01c-1.4-1.37-2.1-3.21-2.1-5.55V68.56z"/>
		</g>
		<g>
			<path d="M232.62,90.13V68.56h1.17l9.46,13.89l9.37-13.89h1.2v21.57h-2.71V75.21l-7.56,11.15h-0.67l-7.56-11.15v14.92H232.62z"/>
		</g>
	</g>
	<g>
		<g>
			<path class="st1" d="M113.19,39.47l21.12-38.35h4.41L117.6,39.47H113.19z"/>
			<g>
				<path d="M77.59,34.59c-3.79-3.68-5.71-8.36-5.71-14.11c0-5.81,1.92-10.59,5.81-14.32c3.89-3.79,8.56-5.66,14.06-5.66
					c3.48,0,6.69,0.78,9.65,2.34c2.96,1.56,5.29,3.58,6.9,6.12l-3.63,2.96c-3.06-4.15-7.63-6.75-12.87-6.75
					c-4.2,0-7.73,1.45-10.64,4.36c-2.91,2.91-4.36,6.59-4.36,11c0,4.36,1.4,7.94,4.25,10.74c2.85,2.8,6.44,4.2,10.69,4.2
					c5.4,0,9.75-2.23,13.13-6.64l3.53,2.96c-3.58,4.98-9.81,8.3-16.81,8.3C86.1,40.09,81.43,38.27,77.59,34.59z"/>
			</g>
			<g>
				<path d="M159.88,40.09c-7,0-13.23-3.32-16.81-8.3l3.53-2.96c3.37,4.41,7.73,6.64,13.13,6.64c4.25,0,7.84-1.4,10.69-4.2
					s4.25-6.38,4.25-10.74c0-4.41-1.45-8.1-4.36-11c-2.91-2.91-6.43-4.36-10.64-4.36c-5.24,0-9.81,2.59-12.87,6.75l-3.63-2.96
					c1.61-2.54,3.94-4.57,6.9-6.12c2.96-1.56,6.18-2.34,9.65-2.34c5.5,0,10.17,1.87,14.06,5.66c3.89,3.74,5.81,8.51,5.81,14.32
					c0,5.76-1.92,10.43-5.71,14.11C170.05,38.27,165.38,40.09,159.88,40.09z"/>
			</g>
		</g>
	</g>
</g>
</svg>
